<svg xmlns="http://www.w3.org/2000/svg" viewBox="0 0 64 64">
  <defs>
    <linearGradient id="f-main" x1="32" y1="10" x2="32" y2="52" gradientUnits="userSpaceOnUse">
      <stop offset="0" stop-color="#fbbf24"/>
      <stop offset="0.58" stop-color="#f97316"/>
      <stop offset="1" stop-color="#c2410c"/>
    </linearGradient>
    <linearGradient id="f-side" x1="18" y1="18" x2="46" y2="46" gradientUnits="userSpaceOnUse">
      <stop offset="0" stop-color="#fbbf24"/>
      <stop offset="1" stop-color="#f97316"/>
    </linearGradient>
  </defs>
  <rect width="64" height="64" rx="12" fill="#0f172a"/>
  <circle cx="32" cy="32" r="24" fill="#f97316" opacity="0.12"/>
  <path d="M32 8C38 14 39.5 22 32 30C24.5 22 26 14 32 8Z" fill="url(#f-main)"/>
  <path d="M18 18C26 18.5 31 24 30 32C22 31.5 17.5 26 18 18Z" fill="url(#f-side)" opacity="0.95"/>
  <path d="M46 18C38 18.5 33 24 34 32C42 31.5 46.5 26 46 18Z" fill="url(#f-side)" opacity="0.95"/>
  <path d="M24 30C29 31.5 31.5 36 30 42C24.5 41 21.5 36.5 24 30Z" fill="#f97316" opacity="0.92"/>
  <path d="M40 30C35 31.5 32.5 36 34 42C39.5 41 42.5 36.5 40 30Z" fill="#f97316" opacity="0.92"/>
  <path d="M32 20C35 24 35.5 29 32 33C28.5 29 29 24 32 20Z" fill="white" opacity="0.96"/>
  <circle cx="32" cy="36.5" r="2" fill="white" opacity="0.9"/>
  <path d="M15 39C19.5 44.5 25.5 48 32 48C38.5 48 44.5 44.5 49 39" stroke="#7c2d12" stroke-width="3.4" stroke-linecap="round" opacity="0.95"/>
  <path d="M20 46C23.5 49 27.6 50.5 32 50.5C36.4 50.5 40.5 49 44 46" stroke="#7c2d12" stroke-width="2.5" stroke-linecap="round" opacity="0.72"/>
</svg>
