<svg viewBox="0 0 32 32" fill="none" xmlns="http://www.w3.org/2000/svg">
  <rect width="32" height="32" rx="6" fill="#1e293b"/>
  <circle cx="16" cy="16" r="12" fill="#ea6a0c" opacity="0.08"/>
  <!-- Center petal -->
  <path d="M16 4.5C19 7.5 19.5 11.5 16 15.5C12.5 11.5 13 7.5 16 4.5Z" fill="#ea6a0c"/>
  <!-- Side petals -->
  <path d="M9.5 9.5C14 9.7 16.8 12.7 16.2 17C11.7 16.7 9.2 13.8 9.5 9.5Z" fill="#f5b74a" opacity="0.95"/>
  <path d="M22.5 9.5C18 9.7 15.2 12.7 15.8 17C20.3 16.7 22.8 13.8 22.5 9.5Z" fill="#f5b74a" opacity="0.95"/>
  <!-- Lower petals -->
  <path d="M12 15C14.5 15.8 15.8 18 15 21C12.2 20.5 10.8 18.2 12 15Z" fill="#ea6a0c" opacity="0.92"/>
  <path d="M20 15C17.5 15.8 16.2 18 17 21C19.8 20.5 21.2 18.2 20 15Z" fill="#ea6a0c" opacity="0.92"/>
  <!-- Inner highlight -->
  <path d="M16 10C17.6 12.1 17.8 14.5 16 16.6C14.2 14.5 14.4 12.1 16 10Z" fill="white" opacity="0.95"/>
  <circle cx="16" cy="18.2" r="1" fill="white" opacity="0.9"/>
  <!-- Base arcs -->
  <path d="M7.5 19.5C9.8 22.2 12.7 24 16 24C19.3 24 22.2 22.2 24.5 19.5" stroke="#7a4319" stroke-width="2" stroke-linecap="round"/>
  <path d="M10 23C11.8 24.4 13.8 25.2 16 25.2C18.2 25.2 20.2 24.4 22 23" stroke="#7a4319" stroke-width="1.5" stroke-linecap="round" opacity="0.72"/>
</svg>
